<?xml version="1.0"?>
<svg xmlns="http://www.w3.org/2000/svg" id="Capa_1" enable-background="new 0 0 512 512" viewBox="0 0 512 512" class="">
    <g>
        <g>
            <path d="m403.663 504.5h-295.325c-6.182 0-11.194-5.012-11.194-11.194v-275.324c0-6.182 5.012-11.194 11.194-11.194h295.325c6.182 0 11.194 5.012 11.194 11.194v275.325c0 6.182-5.012 11.193-11.194 11.193z" fill="#ffd064" data-original="#FFD064" class="" style="fill:#D6D6D6" data-old_color="#ffd064"/>
            <path d="m381.079 206.788c6.081 0 11.011 4.93 11.011 11.011v286.701h11.573c6.182 0 11.194-5.012 11.194-11.194v-275.324c0-6.182-5.012-11.194-11.194-11.194z" fill="#ffc250" data-original="#FFC250" class="" data-old_color="#ffc250" style="fill:#BABABA"/>
            <g>
                <path d="m310.876 458.211-5.524-5.675 33.656-32.76-33.656-32.76 5.524-5.675c7.639-7.849 20.195-8.018 28.043-.379l29.496 28.71c1.529 1.489 2.774 3.268 3.504 5.273 1.94 5.328.493 11.044-3.339 14.774l-29.662 28.871c-7.847 7.639-20.403 7.469-28.042-.379z" fill="#f9f6f6" data-original="#F9F6F6" class="" style="fill:#F9F6F6"/>
            </g>
            <path d="m275.571 259.048h-39.141c-3.623 0-6.56-2.937-6.56-6.56v-45.701h52.26v45.701c0 3.623-2.936 6.56-6.559 6.56z" fill="#26457d" data-original="#26457D" class="" style="fill:#009DA6" data-old_color="#26457d"/>
            <path d="m263.077 206.788v45.701c0 3.623-2.937 6.559-6.559 6.559h19.053c3.623 0 6.559-2.937 6.559-6.559v-45.701z" fill="#21386b" data-original="#21386B" class="" style="fill:#008991" data-old_color="#21386b"/>
            <path d="m313.508 120.978-57.508 56.893-57.508-56.893h25.342c3.31 0 5.994-2.683 5.994-5.994v-94.253h52.345v94.253c0 3.31 2.683 5.994 5.994 5.994z" fill="#dd636e" data-original="#DD636E" class="" style="fill:#008991" data-old_color="#dd636e"/>
            <g fill="#da4a54">
                <path d="m261.415 114.984v-94.253h20.758v94.253c0 3.31 2.683 5.994 5.994 5.994h-20.758c-3.311 0-5.994-2.684-5.994-5.994z" data-original="#DA4A54" class="active-path" style="fill:#005155" data-old_color="#DA4A54"/>
                <path d="m256 177.871-10.379-10.268 47.129-46.625h20.758z" data-original="#DA4A54" class="active-path" style="fill:#005155" data-old_color="#DA4A54"/>
            </g>
            <g>
                <path d="m158.635 446.724c4.143 0 7.5-3.357 7.5-7.5v-38.91l7.888 7.79c2.946 2.909 7.695 2.883 10.606-.066 2.911-2.946 2.881-7.695-.065-10.605l-20.658-20.401c-2.922-2.887-7.619-2.885-10.541 0l-20.657 20.401c-2.946 2.91-2.977 7.659-.065 10.606 1.467 1.485 3.401 2.229 5.336 2.229 1.904 0 3.809-.721 5.271-2.164l7.887-7.789v38.909c-.002 4.142 3.355 7.5 7.498 7.5z" data-original="#000000" class="" style="fill:#000000" data-old_color="#000000"/>
                <path d="m224.826 446.724c4.143 0 7.5-3.357 7.5-7.5v-38.91l7.888 7.79c2.946 2.909 7.695 2.883 10.606-.066 2.911-2.946 2.881-7.695-.065-10.605l-20.658-20.401c-2.922-2.887-7.619-2.885-10.541 0l-20.657 20.401c-2.946 2.91-2.977 7.659-.065 10.606 1.467 1.485 3.401 2.229 5.336 2.229 1.904 0 3.809-.721 5.271-2.164l7.887-7.789v38.909c-.002 4.142 3.356 7.5 7.498 7.5z" data-original="#000000" class="" style="fill:#000000" data-old_color="#000000"/>
                <path d="m299.978 457.766 5.524 5.677c10.511 10.799 27.848 11.034 38.648.521l29.661-28.87c6.021-5.86 8.046-14.776 5.156-22.715-.001-.001-.001-.001-.001-.002-1.087-2.984-2.878-5.703-5.32-8.08-.104-.102-29.002-28.229-29.496-28.71-10.799-10.513-28.137-10.277-38.648.521l-5.523 5.675c-2.89 2.969-2.825 7.717.143 10.605l28.135 27.387-28.135 27.386c-2.969 2.889-3.033 7.637-.144 10.605zm44.262-32.617c3.021-2.94 3.026-7.804 0-10.748l-28.282-27.53.292-.3c4.78-4.91 12.582-4.963 17.438-.236 27.843 27.101 23.957 23.319 29.497 28.711 2.962 2.882 2.586 6.943.165 9.299l-29.661 28.87c-4.873 4.742-12.694 4.637-17.438-.234l-.293-.302z" data-original="#000000" class="" style="fill:#000000" data-old_color="#000000"/>
                <path d="m318.032 77.392 21.597 17.255c1.369 1.094 3.025 1.641 4.682 1.641s3.312-.547 4.682-1.641l21.597-17.255c3.236-2.585 3.764-7.305 1.178-10.541-2.586-3.235-7.304-3.764-10.541-1.178l-9.415 7.522v-65.695c0-4.143-3.357-7.5-7.5-7.5s-7.5 3.357-7.5 7.5v65.695l-9.415-7.522c-3.237-2.586-7.957-2.059-10.541 1.178-2.587 3.236-2.06 7.956 1.176 10.541z" data-original="#000000" class="" style="fill:#000000" data-old_color="#000000"/>
                <path d="m141.412 77.392 21.597 17.255c1.369 1.094 3.025 1.641 4.682 1.641s3.312-.547 4.682-1.641l21.597-17.255c3.236-2.585 3.764-7.305 1.178-10.541-2.586-3.235-7.303-3.764-10.541-1.178l-9.415 7.522v-65.695c0-4.143-3.357-7.5-7.5-7.5s-7.5 3.357-7.5 7.5v65.695l-9.415-7.522c-3.237-2.586-7.957-2.059-10.541 1.178-2.588 3.236-2.06 7.956 1.176 10.541z" data-original="#000000" class="" style="fill:#000000" data-old_color="#000000"/>
                <path d="m231.564 153.697c-2.913 2.944-2.888 7.693.058 10.606l19.104 18.899c1.461 1.445 3.367 2.168 5.274 2.168s3.813-.723 5.274-2.168l57.508-56.894c2.162-2.139 2.818-5.371 1.662-8.184s-3.896-4.648-6.937-4.648h-23.835v-92.745c0-4.143-3.357-7.5-7.5-7.5s-7.5 3.357-7.5 7.5v94.253c0 7.44 6.053 13.493 13.493 13.493h7.097l-39.262 38.844-13.829-13.682c-2.943-2.911-7.692-2.886-10.607.058z" data-original="#000000" class="" style="fill:#000000" data-old_color="#000000"/>
                <path d="m191.557 118.126c-1.156 2.812-.5 6.045 1.662 8.184l17.086 16.903c2.944 2.913 7.693 2.887 10.606-.058 2.913-2.944 2.888-7.693-.058-10.606l-4.115-4.071h7.096c7.44 0 13.494-6.053 13.494-13.493v-94.254c0-4.143-3.357-7.5-7.5-7.5s-7.5 3.357-7.5 7.5v92.746h-23.835c-3.041.001-5.78 1.836-6.936 4.649z" data-original="#000000" class="" style="fill:#000000" data-old_color="#000000"/>
                <path d="m414.856 431.729c4.143 0 7.5-3.357 7.5-7.5v-206.248c0-10.308-8.386-18.694-18.693-18.694h-295.325c-10.308 0-18.694 8.387-18.694 18.694v275.325c0 10.308 8.387 18.693 18.694 18.693h295.325c10.308 0 18.693-8.386 18.693-18.693v-39.09c0-4.143-3.357-7.5-7.5-7.5s-7.5 3.357-7.5 7.5v39.09c0 2.036-1.657 3.693-3.693 3.693h-295.325c-2.037 0-3.694-1.657-3.694-3.693v-275.325c0-2.037 1.657-3.694 3.694-3.694h114.032v38.201c0 7.753 6.307 14.06 14.06 14.06h39.142c7.753 0 14.06-6.307 14.06-14.06v-38.201h114.032c2.036 0 3.693 1.657 3.693 3.694v206.248c-.001 4.143 3.357 7.5 7.499 7.5zm-140.225-180.181h-37.261v-37.261h37.261z" data-original="#000000" class="" style="fill:#000000" data-old_color="#000000"/>
            </g>
        </g>
    </g>
</svg>
