<?xml version="1.0" encoding="UTF-8"?>
<svg width="32px" height="34px" viewBox="0 0 32 34" version="1.1" xmlns="http://www.w3.org/2000/svg" xmlns:xlink="http://www.w3.org/1999/xlink">
    <!-- Generator: Sketch 57.1 (83088) - https://sketch.com -->
    <title>001-ring</title>
    <desc>Created with Sketch.</desc>
    <g id="INFO-GENERALES" stroke="none" stroke-width="1" fill="none" fill-rule="evenodd">
        <g id="UI-CDM-MR-----INFO-GENERALES" transform="translate(-1509.000000, -36.000000)" fill="#646678">
            <g id="Top-barre" transform="translate(320.000000, 0.000000)">
                <g id="notification" transform="translate(1188.338983, 30.000000)">
                    <g id="001-ring" transform="translate(0.000000, 6.352941)">
                        <path d="M31.717617,23.9618072 C27.573113,20.0170588 28.9494415,18.0377102 28.9494415,11.7352941 C28.9494415,5.25403263 23.4289649,0 16.6187505,0 C9.80853609,0 4.28805943,5.25409812 4.28805943,11.7352941 C4.28805943,15.1334869 4.19294644,16.4020381 3.70134576,17.9594531 C3.08999356,19.8997059 3.83494248,21.7572484 1.5192645,23.9618072 C0.409911113,25.0179837 1.1957289,26.8235294 2.76495569,26.8235294 L10.541498,26.8235294 L10.4527856,27.6617647 C10.4527856,30.9023955 13.2130583,33.5294118 16.6181311,33.5294118 C20.0232039,33.5294118 22.7834766,30.9023955 22.7834766,27.6617647 L22.6947641,26.8235294 L30.4719259,26.8235294 C32.041772,26.8235294 32.8275898,25.0179837 31.717617,23.9618072 Z M16.6193011,31.8529412 C14.1873127,31.8529412 12.2152665,29.9758835 12.2152665,27.6617647 L12.303979,26.8235294 L20.9335908,26.8235294 L21.0234732,27.6617647 C21.0234732,29.9758835 19.0512894,31.8529412 16.6193011,31.8529412 Z M0.765506272,25.1470588 C6.04992101,20.1176471 6.04992101,16.7647059 6.04992101,11.7352941 C6.04992101,6.18061006 10.7816893,1.67647059 16.6187505,1.67647059 C22.4558116,1.67647059 27.1875799,6.18061006 27.1881305,11.7352941 C27.1881305,16.7647059 27.1881305,20.1176471 32.4725453,25.1470588 L0.765506272,25.1470588 Z" id="Shape"></path>
                    </g>
                </g>
            </g>
        </g>
    </g>
</svg>