<svg id="Capa_1" enable-background="new 0 0 512 512" viewBox="0 0 512 512"
    xmlns="http://www.w3.org/2000/svg">
    <g>
        <g>
            <g>
                <g>
                    <path d="m408.316 47.134h-354.8c-25.414 0-46.016 20.602-46.016 46.016v222.545c0 25.414 20.602 46.016 46.016 46.016h19.392c5.964 0 11.477 3.178 14.466 8.339l51.056 88.147c5.151 8.892 17.99 8.892 23.141 0l51.056-88.147c2.989-5.161 8.502-8.339 14.466-8.339h181.223c25.414 0 46.016-20.602 46.016-46.016v-222.545c0-25.414-20.602-46.016-46.016-46.016z" fill="#00b2bd"/>
                </g>
                <g fill="#009fa1">
                    <path d="m408.316 47.134h-63.265c25.414 0 46.016 20.602 46.016 46.016v222.544c0 25.414-20.602 46.016-46.016 46.016h63.265c25.414 0 46.016-20.602 46.016-46.016v-222.544c0-25.414-20.602-46.016-46.016-46.016z"/>
                    <path d="m149.362 370.05-30.994 53.51 20.062 34.637c5.151 8.892 17.99 8.892 23.141 0l51.056-88.147c2.989-5.161 8.502-8.339 14.466-8.339h-63.265c-5.964 0-11.476 3.178-14.466 8.339z"/>
                </g>
                <g>
                    <path d="m391.067 397.078v-35.328h71.369c23.186 0 41.986-18.787 42.003-41.972l.061-82.925-46.711 41.602h-66.721v-35.006c-.581-8.461-10.599-12.929-16.894-7.275l-85.527 76.814c-4.326 3.885-4.326 10.665 0 14.55l85.527 76.814c6.294 5.654 16.312 1.187 16.893-7.274z" fill="#f0f7ff"/>
                    <g>
                        <path d="m457.789 278.455h-16.629l-.03 41.323c-.017 23.186-18.817 41.972-42.003 41.972h63.31c23.186 0 41.986-18.787 42.003-41.972l.061-82.925z" fill="#e0f2ff"/>
                    </g>
                    <path d="m454.332 278.455h8.475c22.984 0 41.622-18.619 41.648-41.602.025-23.019-18.628-41.693-41.648-41.693h-8.475z" fill="#b1e4f9"/>
                </g>
            </g>
        </g>
        <g>
            <path d="m462.807 187.659h-.975v-47.308c0-4.142-3.357-7.5-7.5-7.5s-7.5 3.358-7.5 7.5v130.603h-48.265v-27.505c0-6.189-4.109-13.097-11.242-15.989-6.236-2.528-13.195-1.327-18.163 3.134l-85.527 76.814c-3.644 3.272-5.733 7.958-5.733 12.855.001 4.897 2.091 9.583 5.733 12.854l85.527 76.814c4.983 4.475 11.947 5.654 18.163 3.133 7.266-2.946 11.242-9.952 11.242-15.989v-27.825h63.869c27.276 0 49.483-22.191 49.503-49.467l.061-82.925c.02-26.457-21.385-49.199-49.193-49.199zm-.975 15h.975c18.888 0 34.168 15.295 34.147 34.185-.021 18.809-15.339 34.11-34.147 34.11h-.975zm35.107 117.113c-.014 19.011-15.491 34.478-34.503 34.478h-71.369c-4.143 0-7.5 3.358-7.5 7.5v34.998c-.199 1.614-1.479 2.256-1.879 2.418-.944.383-1.787.251-2.503-.393l-85.527-76.814c-.658-.591-.756-1.315-.757-1.695 0-.379.099-1.104.757-1.695l85.527-76.814c.718-.644 1.559-.775 2.503-.393.399.162 1.68.804 1.879 2.417v34.676c0 4.142 3.357 7.5 7.5 7.5h71.739c13.265 0 25.315-5.297 34.168-13.875z"/>
            <path d="m288.667 354.211h-61.574c-8.61 0-16.64 4.628-20.956 12.079l-51.055 88.147c-1.531 2.643-4.063 2.929-5.081 2.929h-.001c-1.017 0-3.549-.286-5.079-2.929l-51.057-88.148c-4.316-7.45-12.347-12.078-20.956-12.078h-19.391c-21.239 0-38.517-17.278-38.517-38.517v-222.544c0-21.238 17.278-38.516 38.517-38.516h354.799c21.238 0 38.517 17.278 38.517 38.516v12.139c0 4.142 3.357 7.5 7.5 7.5s7.5-3.358 7.5-7.5v-12.139c0-29.509-24.008-53.516-53.517-53.516h-354.799c-29.509 0-53.517 24.007-53.517 53.516v222.544c0 29.509 24.008 53.517 53.517 53.517h19.392c3.277 0 6.334 1.762 7.977 4.597l51.056 88.147c3.775 6.519 10.526 10.41 18.06 10.411h.001c7.532 0 14.284-3.892 18.061-10.411l51.056-88.147c1.643-2.836 4.698-4.598 7.976-4.598h61.574c4.143 0 7.5-3.358 7.5-7.5s-3.36-7.499-7.503-7.499z"/>
            <path d="m397.416 121.37h-333c-4.143 0-7.5 3.358-7.5 7.5s3.357 7.5 7.5 7.5h333c4.143 0 7.5-3.358 7.5-7.5s-3.357-7.5-7.5-7.5z"/>
            <path d="m404.916 190.96c0-4.142-3.357-7.5-7.5-7.5h-333c-4.143 0-7.5 3.358-7.5 7.5s3.357 7.5 7.5 7.5h333c4.143 0 7.5-3.358 7.5-7.5z"/>
            <path d="m64.416 245.55c-4.143 0-7.5 3.358-7.5 7.5s3.357 7.5 7.5 7.5h199.99c4.143 0 7.5-3.358 7.5-7.5s-3.357-7.5-7.5-7.5z"/>
        </g>
    </g>
</svg>