<?xml version="1.0"?>
<svg xmlns="http://www.w3.org/2000/svg" viewBox="0 0 128 128" class="">
	<g>
		<g>
			<g>
				<path d="m71.165 97.24a12 12 0 0 0 9.521-11.74v-6.063c0-9.353-7.654-17.3-17.005-17.12a16.685 16.685 0 0 0 -16.367 16.683v6.5a12 12 0 0 0 9.521 11.74l-18.88 12.814a19.57 19.57 0 0 0 -8.58 16.193h69.25a19.57 19.57 0 0 0 -8.58-16.193z" fill="#e1ebf0" data-original="#E1EBF0" class="" style="fill:#FFFFFF" data-old_color="#e1ebf0"/>
				<path d="m83.413 105.553 6.632 4.5a19.561 19.561 0 0 1 5.783 6.117h30.422a13.566 13.566 0 0 0 -5.947-11.224l-13.086-8.882a8.319 8.319 0 0 0 6.6-8.137v-4.2a11.813 11.813 0 0 0 -11.787-11.867 11.566 11.566 0 0 0 -11.346 11.562v4.506a8.319 8.319 0 0 0 6.6 8.137l-13.084 8.882c-.278.187-.528.401-.787.606z" fill="#b4d2d7" data-original="#B4D2D7" class="" data-old_color="#b4d2d7" style="fill:#DFDFDF"/>
				<path d="m44.587 105.553-6.632 4.5a19.549 19.549 0 0 0 -5.783 6.117h-30.422a13.566 13.566 0 0 1 5.95-11.223l13.086-8.882a8.319 8.319 0 0 1 -6.6-8.137v-4.2a11.813 11.813 0 0 1 11.785-11.87 11.567 11.567 0 0 1 11.345 11.564v4.506a8.319 8.319 0 0 1 -6.6 8.137l13.084 8.882c.278.187.528.401.787.606z" fill="#b4d2d7" data-original="#B4D2D7" class="" data-old_color="#b4d2d7" style="fill:#DFDFDF"/>
				<g>
					<path d="m54.964 20.722a6.631 6.631 0 0 1 5.5-10.353h7.07a6.633 6.633 0 0 1 5.5 10.352 18.318 18.318 0 0 0 4-14.674l-.183-1.115a15.186 15.186 0 0 0 -9.316-3.185h-7.07a15.184 15.184 0 0 0 -9.316 3.185l-.183 1.115a18.317 18.317 0 0 0 3.998 14.675z" fill="#ae2538" data-original="#AE2538" class="" style="fill:#00646A" data-old_color="#ae2538"/>
					<path d="m39.855 50.434 6.548.18-.828 6.271 18.425-16.337-6.498-5.761z" fill="#e63950" data-original="#E63950" class="active-path" style="fill:#008991" data-old_color="#e63950"/>
					<path d="m76.851 4.932.183 1.115a18.426 18.426 0 0 1 -5.925 16.675l-7.109 6.304 6.5 5.761 7.165-6.352a15.253 15.253 0 0 0 -.812-23.5z" fill="#e63950" data-original="#E63950" class="active-path" style="fill:#008991" data-old_color="#e63950"/>
					<path d="m88.145 50.434-25.069-22.228-6.188-5.486a18.434 18.434 0 0 1 -5.922-16.673l.183-1.115a15.253 15.253 0 0 0 -.812 23.5l32.088 28.45-.825-6.268z" fill="#ff637b" data-original="#FF637B" class="" style="fill:#00979F" data-old_color="#ff637b"/>
				</g>
			</g>
			<g>
				<path d="m71.477 64.067a1.75 1.75 0 0 0 .494 2.425 15.306 15.306 0 0 1 1.652 1.264 1.75 1.75 0 0 0 2.31-2.629 18.887 18.887 0 0 0 -2.033-1.554 1.749 1.749 0 0 0 -2.423.494z" data-original="#000000" class="" style="fill:#000000"/>
				<path d="m121.286 103.5-10.411-7.066a10.116 10.116 0 0 0 4.69-8.505v-4.2a13.837 13.837 0 0 0 -4.135-9.808 13 13 0 0 0 -9.43-3.812 13.38 13.38 0 0 0 -13.065 13.313v4.506a10.116 10.116 0 0 0 4.69 8.505l-10.266 6.967-8.374-5.683a13.822 13.822 0 0 0 7.45-12.217v-6.064a18.886 18.886 0 0 0 -.766-5.32 1.75 1.75 0 0 0 -3.359.986 15.352 15.352 0 0 1 .625 4.334v6.064a10.287 10.287 0 0 1 -8.129 10.028 1.75 1.75 0 0 0 -.623 3.16l18.879 12.812a17.813 17.813 0 0 1 5.3 5.624l.024.037a17.794 17.794 0 0 1 2.4 7.334h-65.575a17.8 17.8 0 0 1 2.4-7.333.453.453 0 0 0 .026-.04 17.814 17.814 0 0 1 5.3-5.622l18.88-12.812a1.75 1.75 0 0 0 -.623-3.16 10.288 10.288 0 0 1 -8.13-10.028v-6.5a15.008 15.008 0 0 1 14.65-14.933 1.75 1.75 0 0 0 -.032-3.5h-.034a18.525 18.525 0 0 0 -18.084 18.433v6.5a13.823 13.823 0 0 0 7.451 12.218l-8.374 5.682-10.266-6.967a10.116 10.116 0 0 0 4.69-8.505v-4.506a13.38 13.38 0 0 0 -13.065-13.313 13.062 13.062 0 0 0 -9.434 3.808 13.837 13.837 0 0 0 -4.135 9.808v4.2a10.116 10.116 0 0 0 4.69 8.505l-10.407 7.07a15.3 15.3 0 0 0 -6.714 12.671 1.75 1.75 0 0 0 1.75 1.75h27.575a21.313 21.313 0 0 0 -1.7 8.326 1.751 1.751 0 0 0 1.75 1.75h69.25a1.751 1.751 0 0 0 1.75-1.75 21.293 21.293 0 0 0 -1.7-8.326h27.575a1.751 1.751 0 0 0 1.75-1.75 15.3 15.3 0 0 0 -6.714-12.671zm-117.656 10.921a11.8 11.8 0 0 1 5.05-8.021l13.086-8.882a1.75 1.75 0 0 0 -.623-3.16 6.59 6.59 0 0 1 -5.208-6.425v-4.2a10.314 10.314 0 0 1 3.087-7.31 9.671 9.671 0 0 1 6.916-2.807 9.863 9.863 0 0 1 9.627 9.814v4.506a6.59 6.59 0 0 1 -5.208 6.425 1.75 1.75 0 0 0 -.623 3.16l11.791 8-4.553 3.09a21.327 21.327 0 0 0 -5.76 5.815zm93.157 0a21.309 21.309 0 0 0 -5.759-5.815l-4.553-3.09 11.791-8a1.75 1.75 0 0 0 -.623-3.16 6.59 6.59 0 0 1 -5.208-6.425v-4.509a9.863 9.863 0 0 1 9.627-9.814 9.643 9.643 0 0 1 6.916 2.807 10.314 10.314 0 0 1 3.087 7.31v4.2a6.59 6.59 0 0 1 -5.208 6.425 1.75 1.75 0 0 0 -.623 3.16l13.086 8.89a11.8 11.8 0 0 1 5.05 8.026z" data-original="#000000" class="" style="fill:#000000"/>
				<path d="m39.807 52.184 4.607.126-.574 4.346a1.75 1.75 0 0 0 2.9 1.539l17.26-15.307 17.264 15.312a1.75 1.75 0 0 0 2.9-1.539l-.574-4.346 4.607-.126a1.751 1.751 0 0 0 1.114-3.06l-16.175-14.342 5.688-5.042a17 17 0 0 0 -.9-26.2 16.841 16.841 0 0 0 -10.389-3.545h-7.07a17.04 17.04 0 0 0 -17.015 17.013 1.75 1.75 0 1 0 3.5 0 13.411 13.411 0 0 1 2.043-7.147 20.237 20.237 0 0 0 6.734 14.163l7.111 6.306 5.335 4.731 15.5 13.74-2.121.058a1.751 1.751 0 0 0 -1.687 1.979l.214 1.621-14.914-13.221-6.5-5.762-7.165-6.355a13.65 13.65 0 0 1 -1.93-2.118 1.75 1.75 0 1 0 -2.822 2.069 17.031 17.031 0 0 0 2.43 2.668l5.688 5.042-16.173 14.337a1.751 1.751 0 0 0 1.114 3.06zm41.243-35.171a13.527 13.527 0 0 1 -4.55 10.113l-6 5.322-3.86-3.422 5.632-4.994a20.239 20.239 0 0 0 6.735-14.166 13.42 13.42 0 0 1 2.043 7.147zm-13.515-13.513a13.349 13.349 0 0 1 7.707 2.437l.065.4a16.517 16.517 0 0 1 -.322 6.832 8.4 8.4 0 0 0 -7.45-4.543h-7.07a8.4 8.4 0 0 0 -7.45 4.543 16.517 16.517 0 0 1 -.322-6.832l.065-.4a13.347 13.347 0 0 1 7.707-2.437zm-11.155 16.181a4.873 4.873 0 0 1 4.085-7.562h7.07a4.873 4.873 0 0 1 4.086 7.561 16.457 16.457 0 0 1 -1.673 1.733l-5.948 5.274-5.951-5.276a16.691 16.691 0 0 1 -1.669-1.73zm1.12 17.445 3.86 3.423-13.437 11.915.214-1.621a1.751 1.751 0 0 0 -1.687-1.979l-2.122-.058z" data-original="#000000" class="" style="fill:#000000"/>
			</g>
		</g>
	</g>
</svg>
