<?xml version="1.0"?>
<svg xmlns="http://www.w3.org/2000/svg" viewBox="0 0 512 512" class="">
    <g>
        <g id="filled_outline" data-name="filled outline">
            <path d="m397.352 306.843 90.648 87.459-80 92.853-48-46.982v-136.173z" fill="#f6bb92" data-original="#F6BB92" class="" style="fill:#008991" data-old_color="#f6bb92"/>
            <path d="m375.871 254.58-50.65-23.636a40.017 40.017 0 0 1 -12.374-9.006l-21.583-23.2a118.094 118.094 0 0 0 -15.308-13.813l-48.309-36.469-124.447-124.456-79.2 79.2 174.77 191.955 1.23 100a20 20 0 0 0 40 0v8a20 20 0 0 0 40 0v8a20 20 0 0 0 40 0v32a20 20 0 0 0 40 0v-136.312h37.353l1.421-9.951a40.389 40.389 0 0 0 -22.903-42.312z" fill="#fdc9a6" data-original="#FDC9A6" class="" style="fill:#FFFFFF" data-old_color="#fdc9a6"/>
            <path d="m248 351.15v64.85a7.9 7.9 0 0 1 -.49 2.76 19.927 19.927 0 0 1 -7.51-15.61v-8a19.967 19.967 0 0 1 -8 16v-60a8 8 0 0 1 16 0z" fill="#fdc9a6" data-original="#FDC9A6" class="" style="fill:#FFFFFF" data-old_color="#fdc9a6"/>
            <path d="m288 359.15v64.85a7.9 7.9 0 0 1 -.49 2.76 19.927 19.927 0 0 1 -7.51-15.61v-8a19.967 19.967 0 0 1 -8 16v-60a8 8 0 0 1 16 0z" fill="#fdc9a6" data-original="#FDC9A6" class="" style="fill:#FFFFFF" data-old_color="#fdc9a6"/>
            <path d="m328 367.15v92a19.967 19.967 0 0 1 -8-16v-32a19.967 19.967 0 0 1 -8 16v-60a8 8 0 0 1 16 0z" fill="#fdc9a6" data-original="#FDC9A6" class="" style="fill:#FFFFFF" data-old_color="#fdc9a6"/>
            <path d="m320 411.15a19.967 19.967 0 0 1 -8 16v-60a8 8 0 0 1 8-8z" fill="#f6bb92" data-original="#F6BB92" class="" style="fill:#008991" data-old_color="#f6bb92"/>
            <path d="m280 403.15a19.967 19.967 0 0 1 -8 16v-60a8 8 0 0 1 8-8z" fill="#f6bb92" data-original="#F6BB92" class="" style="fill:#008991" data-old_color="#f6bb92"/>
            <path d="m240 395.15a19.967 19.967 0 0 1 -8 16v-60a8 8 0 0 1 8-8z" fill="#f6bb92" data-original="#F6BB92" class="" style="fill:#008991" data-old_color="#f6bb92"/>
            <path d="m344 199.155a7.976 7.976 0 0 1 -5.657-2.343l-24-24a8 8 0 0 1 11.314-11.312l24 24a8 8 0 0 1 -5.657 13.655z" fill="#75c2d4" data-original="#75C2D4" class=""/>
            <path d="m296 151.155a7.976 7.976 0 0 1 -5.657-2.343l-8-8a8 8 0 0 1 11.314-11.312l8 8a8 8 0 0 1 -5.657 13.655z" fill="#75c2d4" data-original="#75C2D4" class=""/>
            <g fill="#f6bb92">
                <path d="m214.31 78.545-.96-.959a30 30 0 0 0 -32.35-6.641l-11.8 4.718a23.077 23.077 0 0 0 -10.63 34.227 23.08 23.08 0 0 0 19.2 10.277h21.59l28.285 28.284-4.674-51.409a30 30 0 0 0 -8.661-18.497z" data-original="#F6BB92" class="" style="fill:#008991" data-old_color="#F6BB92"/>
                <rect height="80" rx="20" transform="matrix(.707 .707 -.707 .707 142.711 -19.348)" width="40" x="74.711" y="122.593" data-original="#F6BB92" class="" style="fill:#008991" data-old_color="#F6BB92"/>
                <rect height="80" rx="20" transform="matrix(.707 .707 -.707 .707 170.995 -31.064)" width="40" x="102.995" y="150.877" data-original="#F6BB92" class="" style="fill:#008991" data-old_color="#F6BB92"/>
                <rect height="80" rx="20" transform="matrix(.707 .707 -.707 .707 199.279 -42.78)" width="40" x="131.279" y="179.161" data-original="#F6BB92" class="" style="fill:#008991" data-old_color="#F6BB92"/>
                <path d="m124.33 161.37-30.43 30.38c.25-.3.53-.59.81-.87l28.28-28.29c.43-.43.88-.84 1.34-1.22z" data-original="#F6BB92" class="" style="fill:#008991" data-old_color="#F6BB92"/>
                <path d="m153.3 189.12-31.86 31.8a16.98 16.98 0 0 1 1.55-1.76l28.29-28.28a19.578 19.578 0 0 1 2.02-1.76z" data-original="#F6BB92" class="" style="fill:#008991" data-old_color="#F6BB92"/>
                <rect height="80" rx="20" transform="matrix(.707 .707 -.707 .707 227.564 -54.495)" width="40" x="159.563" y="207.446" data-original="#F6BB92" class="" style="fill:#008991" data-old_color="#F6BB92"/>
            </g>
            <path d="m185.42 205.02a19.91 19.91 0 0 1 -4.34 12.43l-31.84 31.78a19.834 19.834 0 0 1 -10.02 3.97h-4.1l50.21-50.09c.06.64.09 1.27.09 1.91z" fill="#e6af89" data-original="#E6AF89" class="active-path" style="fill:#005055" data-old_color="#e6af89"/>
            <path d="m151.28 190.832a19.578 19.578 0 0 1 2.02-1.76l-31.86 31.8a16.98 16.98 0 0 1 1.55-1.76 19.929 19.929 0 0 1 -15.73 5.79l49.82-49.71q.06.75.06 1.5a19.945 19.945 0 0 1 -5.86 14.14z" fill="#e6af89" data-original="#E6AF89" class="active-path" style="fill:#005055" data-old_color="#e6af89"/>
            <path d="m122.99 162.542c.43-.43.88-.84 1.34-1.22l-30.43 30.378c.25-.3.53-.59.81-.87a19.961 19.961 0 0 1 -15.87 5.78l49.95-49.84c.05.54.07 1.09.07 1.63a19.931 19.931 0 0 1 -5.87 14.142z" fill="#e6af89" data-original="#E6AF89" class="active-path" style="fill:#005055" data-old_color="#e6af89"/>
            <path d="m405.85 303.925.843-5.9a48.115 48.115 0 0 0 -27.439-50.692l-50.654-23.639a31.852 31.852 0 0 1 -9.9-7.2l-21.583-23.205a126.345 126.345 0 0 0 -16.347-14.75l-45.476-34.339-4.354-47.882a38.068 38.068 0 0 0 -10.972-23.428l-.961-.961a37.959 37.959 0 0 0 -40.983-8.412l-11.794 4.718a31.3 31.3 0 0 0 -4.962 2.524l-52.415-52.416a8 8 0 0 0 -11.313 0l-79.2 79.2a8 8 0 0 0 -.259 11.043l43.387 47.653-.7.7a28.03 28.03 0 0 0 0 39.6 27.913 27.913 0 0 0 19.8 8.187c.1 0 .2-.006.305-.007a27.916 27.916 0 0 0 8.18 20.1 27.911 27.911 0 0 0 19.8 8.188c.1 0 .2-.006.3-.007a27.947 27.947 0 0 0 27.98 28.292c.1 0 .2-.007.305-.008a28 28 0 0 0 42.008 24.535l11.363 12.48 1.191 96.856a27.987 27.987 0 0 0 44.238 22.8 27.97 27.97 0 0 0 40 8 27.984 27.984 0 0 0 35.762 10.496v6.7a28 28 0 0 0 53.2 12.186l37.113 37.445a8 8 0 0 0 5.687 2.373h.279a8 8 0 0 0 5.782-2.774l80-92.852a8 8 0 0 0 -.506-10.979zm-221.883-225.552a21.974 21.974 0 0 1 23.725 4.868l.959.96a22.04 22.04 0 0 1 6.353 13.565l2.673 29.4-12.523-12.522-.3-.3a7.989 7.989 0 0 0 -7.266-2.176h-19.816a15.078 15.078 0 0 1 -5.6-29.077zm-111.884 106.847a12.014 12.014 0 0 1 0-16.971l28.284-28.285a12 12 0 1 1 16.971 16.971l-28.284 28.286a12.015 12.015 0 0 1 -16.971-.001zm28.284 28.285a12.014 12.014 0 0 1 0-16.971l28.285-28.284a12 12 0 0 1 16.971 16.971l-28.285 28.284a12.015 12.015 0 0 1 -16.971 0zm36.77 31.8a12 12 0 0 1 -8.485-20.486l28.284-28.284a12 12 0 0 1 16.971 16.971l-28.284 28.284a11.923 11.923 0 0 1 -8.486 3.51zm28.284 28.284a12 12 0 0 1 -8.485-20.485l28.284-28.285a12 12 0 1 1 16.971 16.971l-28.284 28.284a11.923 11.923 0 0 1 -8.486 3.514zm186.579 169.566a12 12 0 0 1 -24 0v-76a8 8 0 0 0 -16 0v44a12 12 0 0 1 -24 0v-52a8 8 0 0 0 -16 0v44a12 12 0 0 1 -24 0v-52a8 8 0 0 0 -16 0v44a12 12 0 0 1 -24 0l-1.231-100.112a8 8 0 0 0 -2.083-5.274l-13.272-14.576 22.086-22.093a27.982 27.982 0 0 0 -20.09-47.779c0-.1.007-.2.007-.3a27.969 27.969 0 0 0 -28.3-27.98 27.937 27.937 0 0 0 -28.284-28.284 27.982 27.982 0 0 0 -47.779-20.1l-16.254 16.252-37.745-41.454 68.145-68.141 47.157 47.157a31.354 31.354 0 0 0 -2.26 5.4 31.078 31.078 0 0 0 29.679 40.3h18.277l25.941 25.94a8.011 8.011 0 0 0 .754.656c.029.023.054.05.083.072l48.304 36.461a110.32 110.32 0 0 1 14.271 12.877l21.583 23.206a47.775 47.775 0 0 0 14.848 10.806l50.65 23.637a32.2 32.2 0 0 1 18.367 33.931l-.44 3.082h-30.414a8 8 0 0 0 -8 8zm55.589 32.22-39.589-39.944v-120.588h26.122l82.878 79.966z" data-original="#000000" class="" style="fill:#000000"/>
            <path d="m314.343 161.5a8 8 0 0 0 0 11.314l24 24a8 8 0 1 0 11.314-11.314l-24-24a8 8 0 0 0 -11.314 0z" data-original="#000000" class="" style="fill:#000000"/>
            <path d="m282.343 129.5a8 8 0 0 0 0 11.314l8 8a8 8 0 1 0 11.314-11.314l-8-8a8 8 0 0 0 -11.314 0z" data-original="#000000" class="" style="fill:#000000"/>
        </g>
    </g>
</svg>
