<?xml version="1.0" encoding="UTF-8"?>
<svg width="32px" height="35px" viewBox="0 0 32 35" version="1.1" xmlns="http://www.w3.org/2000/svg" xmlns:xlink="http://www.w3.org/1999/xlink">
    <!-- Generator: Sketch 57.1 (83088) - https://sketch.com -->
    <title>Group</title>
    <desc>Created with Sketch.</desc>
    <g id="INFO-GENERALES" stroke="none" stroke-width="1" fill="none" fill-rule="evenodd">
        <g id="UI-CDM-MR-----INFO-GENERALES" transform="translate(-17.000000, -396.000000)" fill-rule="nonzero">
            <g id="Sidebar">
                <g id="Button" transform="translate(0.000000, 378.000000)">
                    <g id="Group" transform="translate(17.000000, 18.000000)">
                        <polygon id="Path" fill="#00979A" points="30.4812416 7 25.4047249 12.0046819 23.5191201 10.145851 22 11.6436884 25.4047249 15 32 8.497124"></polygon>
                        <polygon id="Path" fill="#00979A" points="30.4812416 12 25.4047249 17.0051721 23.5191201 15.1460674 22 16.6434814 25.4047249 20 32 13.4974139"></polygon>
                        <polygon id="Path" fill="#000000" points="25.4421474 21.9096316 24.0749053 20.5803684 24.0749053 32.1561579 2.81254737 32.1561579 2.81254737 2.84384211 24.0749053 2.84384211 24.0749053 8.80931579 25.4421474 10.1385789 27 8.624 27 0 0 0 0 35 27 35 27 20.3946842"></polygon>
                        <path d="M10.1261996,11 C9.33759436,11 9,11.3159014 9,11.9477043 C9,12.6840986 9.56291014,13 10.0135417,13 L17.986079,13 C18.5493684,13 19,12.6840986 19,11.9477043 C19,11.3159014 18.661647,11 17.8738004,11 L10.1261996,11 L10.1261996,11 Z" id="Path" fill="#000000"></path>
                        <path d="M8,12 C8,12.5526401 7.55206478,13 6.99983806,13 C6.44761134,13 6,12.5526401 6,12 C6,11.4476838 6.44761134,11 6.99983806,11 C7.55206478,11 8,11.4476838 8,12" id="Path" fill="#000000"></path>
                        <path d="M17.8738004,17 L10.1261996,17 C9.33797368,17 9,17.5216537 9,18.0443628 C9,18.5660165 9.33797368,19.0887255 10.0135417,18.9839023 L17.986079,18.9839023 C18.661647,19.0887255 19,18.6708397 19,18.0443628 C19,17.4178858 18.661647,17 17.8738004,17" id="Path" fill="#000000"></path>
                        <path d="M8,16.9998381 C8,17.5523887 7.55206478,18 6.99983806,18 C6.44761134,18 6,17.5523887 6,16.9998381 C6,16.4476113 6.44761134,16 6.99983806,16 C7.55206478,16 8,16.4476113 8,16.9998381" id="Path" fill="#000000"></path>
                        <path d="M17.8738004,22 L10.1261996,22 C9.33797368,22 9,22.5216537 9,23.0443628 C9,23.5660165 9.33797368,24.0887255 10.0135417,23.9839023 L17.986079,23.9839023 C18.661647,24.0887255 19,23.6708397 19,23.0443628 C19,22.4178858 18.661647,22 17.8738004,22" id="Path" fill="#000000"></path>
                        <path d="M8,22.9998381 C8,23.5520648 7.55206478,24 6.99983806,24 C6.44761134,24 6,23.5520648 6,22.9998381 C6,22.4476113 6.44761134,22 6.99983806,22 C7.55206478,22 8,22.4476113 8,22.9998381" id="Path" fill="#000000"></path>
                    </g>
                </g>
            </g>
        </g>
    </g>
</svg>