<?xml version="1.0" encoding="UTF-8"?>
<svg width="32px" height="32px" viewBox="0 0 32 32" version="1.1" xmlns="http://www.w3.org/2000/svg" xmlns:xlink="http://www.w3.org/1999/xlink">
    <!-- Generator: Sketch 57.1 (83088) - https://sketch.com -->
    <title>statistics</title>
    <desc>Created with Sketch.</desc>
    <g id="INFO-GENERALES" stroke="none" stroke-width="1" fill="none" fill-rule="evenodd">
        <g id="UI-CDM-MR-----INFO-GENERALES" transform="translate(-11.000000, -466.000000)" fill-rule="nonzero">
            <g id="Sidebar">
                <g id="Button" transform="translate(0.000000, 447.000000)">
                    <g id="statistics" transform="translate(11.000000, 19.000000)">
                        <path d="M30.9394661,25.981007 C30.5623422,25.9821848 30.2144257,26.184206 30.0265146,26.5111214 L5.48927067,26.5111214 L5.48927067,1.97841381 C5.90492328,1.73848103 6.10757129,1.24933591 5.98334998,0.785821368 C5.85912867,0.322306831 5.43901256,0 4.95905827,0 C4.47910398,0 4.05898787,0.322306831 3.93476656,0.785821368 C3.81054525,1.24933591 4.01319325,1.73848103 4.42884586,1.97841381 L4.42884586,6.89688927 L3.36842105,6.89688927 L3.36842105,7.95711803 L4.42884586,7.95711803 L4.42884586,14.3184906 L3.36842105,14.3184906 L3.36842105,15.3787194 L4.42884586,15.3787194 L4.42884586,21.740092 L3.36842105,21.740092 L3.36842105,22.8003207 L4.42884586,22.8003207 L4.42884586,27.5713502 L9.20075751,27.5713502 L9.20075751,28.6315789 L10.2611823,28.6315789 L10.2611823,27.5713502 L16.6237312,27.5713502 L16.6237312,28.6315789 L17.684156,28.6315789 L17.684156,27.5713502 L24.0467049,27.5713502 L24.0467049,28.6315789 L25.1071297,28.6315789 L25.1071297,27.5713502 L30.0265146,27.5713502 C30.2846902,28.0151215 30.8241975,28.2096158 31.3062199,28.0326885 C31.7882423,27.8557611 32.0737276,27.3584515 31.9833878,26.8530756 C31.893048,26.3476998 31.452944,25.9800469 30.9394661,25.981007 Z" id="Path" fill="#000000"></path>
                        <rect id="Rectangle" fill="#000000" x="7.57894737" y="16" width="4.21052632" height="9.26315789"></rect>
                        <rect id="Rectangle" fill="#000000" x="15.1578947" y="10.9473684" width="4.21052632" height="14.3157895"></rect>
                        <rect id="Rectangle" fill="#00979A" x="22.7368421" y="5.89473684" width="4.21052632" height="18.5263158"></rect>
                        <path d="M0.631578947,7.57894737 L1.89473684,7.57894737 C2.24354826,7.57894737 2.52631579,7.39043568 2.52631579,7.15789474 C2.52631579,6.92535379 2.24354826,6.73684211 1.89473684,6.73684211 L0.631578947,6.73684211 C0.282767526,6.73684211 0,6.92535379 0,7.15789474 C0,7.39043568 0.282767526,7.57894737 0.631578947,7.57894737 Z" id="Path" fill="#000000"></path>
                        <path d="M0.631578947,15.1578947 L1.89473684,15.1578947 C2.24354826,15.1578947 2.52631579,14.9693831 2.52631579,14.7368421 C2.52631579,14.5043012 2.24354826,14.3157895 1.89473684,14.3157895 L0.631578947,14.3157895 C0.282767526,14.3157895 0,14.5043012 0,14.7368421 C0,14.9693831 0.282767526,15.1578947 0.631578947,15.1578947 Z" id="Path" fill="#000000"></path>
                        <path d="M0.631578947,22.7368421 L1.89473684,22.7368421 C2.24354826,22.7368421 2.52631579,22.5483304 2.52631579,22.3157895 C2.52631579,22.0832485 2.24354826,21.8947368 1.89473684,21.8947368 L0.631578947,21.8947368 C0.282767526,21.8947368 0,22.0832485 0,22.3157895 C0,22.5483304 0.282767526,22.7368421 0.631578947,22.7368421 Z" id="Path" fill="#000000"></path>
                        <path d="M10.1052632,31.3684211 L10.1052632,30.1052632 C10.1052632,29.7564517 9.91675147,29.4736842 9.68421053,29.4736842 C9.45166958,29.4736842 9.26315789,29.7564517 9.26315789,30.1052632 L9.26315789,31.3684211 C9.26315789,31.7172325 9.45166958,32 9.68421053,32 C9.91675147,32 10.1052632,31.7172325 10.1052632,31.3684211 Z" id="Path" fill="#000000"></path>
                        <path d="M16.8421053,31.3684211 L16.8421053,30.1052632 C16.8421053,29.7564517 16.6535936,29.4736842 16.4210526,29.4736842 C16.1885117,29.4736842 16,29.7564517 16,30.1052632 L16,31.3684211 C16,31.7172325 16.1885117,32 16.4210526,32 C16.6535936,32 16.8421053,31.7172325 16.8421053,31.3684211 Z" id="Path" fill="#000000"></path>
                        <path d="M24.4210526,31.3684211 L24.4210526,30.1052632 C24.4210526,29.7564517 24.2325409,29.4736842 24,29.4736842 C23.7674591,29.4736842 23.5789474,29.7564517 23.5789474,30.1052632 L23.5789474,31.3684211 C23.5789474,31.7172325 23.7674591,32 24,32 C24.2325409,32 24.4210526,31.7172325 24.4210526,31.3684211 Z" id="Path" fill="#000000"></path>
                    </g>
                </g>
            </g>
        </g>
    </g>
</svg>