<?xml version="1.0"?>
<svg xmlns="http://www.w3.org/2000/svg" 
	xmlns:xlink="http://www.w3.org/1999/xlink" version="1.1" id="Capa_1" x="0px" y="0px" viewBox="0 0 480 480" style="enable-background:new 0 0 480 480;" xml:space="preserve" class="">
	<g>
		<rect x="128" y="40" style="fill:#008991" width="224" height="352" data-original="#2E5166" class="" data-old_color="#2E5166"/>
		<path style="fill:#01A4AE" d="M312,104v8h8v248H160v-80h40v-8c0-0.8,0-1.52-0.08-2.32C198.72,253.12,184.88,240,168,240h-8V72h160  v10.88C315.04,88.56,312,95.92,312,104z" data-original="#3F708D" class="" data-old_color="#3F708D"/>
		<g>
			<path style="fill:#008991" d="M216,104L216,104c0,13.255-10.745,24-24,24h0v40l0,0c27.805-23.171,68.195-23.171,96,0l0,0v-40h0   c-13.255,0-24-10.745-24-24v0H216z" data-original="#2E5166" class="" data-old_color="#2E5166"/>
			<path style="fill:#008991" d="M288,264v40c-6.64,0-12.64,2.72-16.96,7.04c-4.32,4.32-7.04,10.32-7.04,16.96h-48   c0-13.28-10.72-24-24-24v-24h8v-8c0-0.8,0-1.52-0.08-2.32c12.24,7.84,26.16,11.76,40.08,11.76C257.04,281.44,274.08,275.6,288,264z   " data-original="#2E5166" class="" data-old_color="#2E5166"/>
			<path style="fill:#008991" d="M296,208h-8v-16c0-4.418-3.582-8-8-8h-40c-4.418,0-8,3.582-8,8v40h-24v-32h8v-16h-16   c-4.418,0-8,3.582-8,8v16h-8v16h8v16c0,4.418,3.582,8,8,8h40c4.418,0,8-3.582,8-8v-40h24v32h-8v16h16c4.418,0,8-3.582,8-8v-16h8   V208z" data-original="#2E5166" class="" data-old_color="#2E5166"/>
		</g>
		<path style="fill:#01A4AE" d="M280,40h-16V16h-48v24h-16V8c0-4.418,3.582-8,8-8h64c4.418,0,8,3.582,8,8V40z" data-original="#3F708D" class="" data-old_color="#3F708D"/>
		<path style="fill:#E3E9ED" d="M352,72h-8c-9.6,0-18.16,4.24-24,10.88c-4.96,5.68-8,13.04-8,21.12v8h112V72H352z" data-original="#FE946F" class="" data-old_color="#FE946F"/>
		<polygon style="fill:#FFFFFF" points="424,32 408,32 384,8 328,8 296,40 352,40 352,72 424,72 " data-original="#FFB398" class="" data-old_color="#FFB398"/>
		<rect x="424" y="72" style="fill:#005F65" width="48" height="40" data-original="#E15D2D" class="active-path" data-old_color="#E15D2D"/>
		<rect x="424" y="32" style="fill:#008991" width="48" height="40" data-original="#F88756" class="" data-old_color="#F88756"/>
		<polygon style="fill:#E3E9ED" points="240,432 280,472 424,472 424,432 " data-original="#FE946F" class="" data-old_color="#FE946F"/>
		<path style="fill:#FFFFFF" d="M424,392h-32v-40h-8c-17.673,0-32,14.327-32,32v8H240v40h184V392z" data-original="#FFB398" class="" data-old_color="#FFB398"/>
		<rect x="424" y="392" style="fill:#008991" width="48" height="40" data-original="#F88756" class="" data-old_color="#F88756"/>
		<rect x="424" y="432" style="fill:#005F65" width="48" height="40" data-original="#E15D2D" class="active-path" data-old_color="#E15D2D"/>
		<polygon style="fill:#FFFFFF" points="160,240 160,176 128,176 104,200 64,200 64,240 " data-original="#FFB398" class="" data-old_color="#FFB398"/>
		<path style="fill:#E3E9ED" d="M199.92,269.68C198.72,253.12,184.88,240,168,240h-8H64v40h136v-8  C200,271.2,200,270.48,199.92,269.68z" data-original="#FE946F" class="" data-old_color="#FE946F"/>
		<rect x="8" y="200" style="fill:#01A4AE" width="56" height="40" data-original="#3F708D" class="" data-old_color="#3F708D"/>
		<rect x="8" y="240" style="fill:#008991" width="56" height="40" data-original="#2E5166" class="" data-old_color="#2E5166"/>
		<path d="M288,120c-8.824,0-16-7.176-16-16c0-4.418-3.582-8-8-8h-48c-4.418,0-8,3.582-8,8c0,8.824-7.176,16-16,16  c-4.418,0-8,3.582-8,8v40c0,3.105,1.797,5.93,4.605,7.246c2.813,1.309,6.133,0.887,8.516-1.102  c24.844-20.703,60.914-20.703,85.758,0c1.465,1.223,3.285,1.855,5.121,1.855c1.152,0,2.309-0.25,3.395-0.754  C294.203,173.93,296,171.105,296,168v-40C296,123.582,292.418,120,288,120z M280,152.887c-12.43-6.848-26.215-10.27-40-10.27  s-27.57,3.422-40,10.27v-17.898c11.23-2.902,20.086-11.758,22.988-22.988h34.023c2.902,11.23,11.758,20.086,22.988,22.988V152.887z" data-original="#000000" class="" style="fill:#000000"/>
		<path d="M424,120h48c4.418,0,8-3.582,8-8V32c0-4.418-3.582-8-8-8h-48h-12.688L389.656,2.344C388.156,0.844,386.121,0,384,0h-56  c-2.121,0-4.156,0.844-5.656,2.344l-29.652,29.652L280,31.982V8c0-4.418-3.582-8-8-8h-64c-4.418,0-8,3.582-8,8v23.891l-44.445-0.051  L127.953,32c-4.398,0.027-7.953,3.602-7.953,8v132.688L100.688,192H64H8c-4.418,0-8,3.582-8,8v80c0,4.418,3.582,8,8,8h56h56v104  c0,4.418,3.582,8,8,8h104v32c0,2.121,0.844,4.156,2.344,5.656l40,40c1.5,1.5,3.535,2.344,5.656,2.344h144h48c4.418,0,8-3.582,8-8  v-80c0-4.418-3.582-8-8-8h-48h-24v-32c0-4.418-3.582-8-8-8h-8c-9.04,0-17.294,3.128-24,8.205V120H424z M464,104h-32V40h32V104z   M331.313,16h49.375l21.656,21.656c1.5,1.5,3.535,2.344,5.656,2.344h8v64h-96c0-1.444,0.134-2.879,0.395-4.29  c0.783-4.224,2.712-8.22,5.617-11.554C330.574,82.975,337.131,80,344,80h8c4.418,0,8-3.582,8-8V40c0-4.418-3.582-8-8-8h-36.688  L331.313,16z M168,288h16v16c0,4.418,3.582,8,8,8c8.824,0,16,7.176,16,16c0,4.418,3.582,8,8,8h48c4.418,0,8-3.582,8-8  c0-4.262,1.668-8.277,4.695-11.305S283.738,312,288,312c4.418,0,8-3.582,8-8v-40c0-3.105-1.797-5.93-4.605-7.246  c-2.813-1.309-6.133-0.891-8.516,1.102c-12.063,10.051-27.289,15.586-42.879,15.586c-11.58,0-22.838-3.167-32.881-8.927  c-1.178-6.111-3.605-11.761-7.22-16.535c0.036,0,0.065,0.021,0.102,0.021h40c4.418,0,8-3.582,8-8v-40h24v32h-8v16h16  c4.418,0,8-3.582,8-8v-16h8v-16h-8v-16c0-4.418-3.582-8-8-8h-40c-4.418,0-8,3.582-8,8v40h-24v-32h8v-16h-16c-4.418,0-8,3.582-8,8v16  h-8v16h8v16c0,0.113,0.06,0.207,0.064,0.318C185.315,235.177,177.021,232,168,232v-56V80h144v0.059  c-0.482,0.646-0.839,1.363-1.28,2.033c-0.51,0.775-1.021,1.539-1.475,2.344c-0.693,1.229-1.274,2.499-1.833,3.787  c-0.349,0.805-0.732,1.587-1.027,2.412c-0.517,1.443-0.884,2.925-1.231,4.417c-0.167,0.72-0.405,1.417-0.532,2.146  C304.23,99.437,304,101.707,304,104v8c0,4.418,3.582,8,8,8v232H168V288z M202.839,287.427c0.271-0.104,0.503-0.251,0.76-0.383  c0.598-0.306,1.143-0.666,1.641-1.106c0.23-0.204,0.445-0.4,0.651-0.628c0.473-0.523,0.852-1.105,1.173-1.74  c0.109-0.214,0.251-0.396,0.34-0.621c0.029-0.072,0.084-0.129,0.111-0.203c23,9.906,50.5,8.477,72.484-3.641v17.898  c-5.48,1.41-10.508,4.266-14.617,8.379c-4.113,4.109-6.969,9.137-8.379,14.617h-34.016c-2.902-11.23-11.758-20.086-22.988-22.988  V288C201.009,288,201.95,287.768,202.839,287.427z M216,16h48v15.963l-48-0.055V16z M155.594,47.84L295.992,48v-0.001  c0.003,0,0.005,0.001,0.008,0.001h48v16c-6.038,0-11.912,1.406-17.247,3.97C325.355,65.639,322.916,64,320,64H160  c-4.418,0-8,3.582-8,8v96h-16V47.953L155.594,47.84z M16,208h40v64H16V208z M72,208h32c2.121,0,4.156-0.844,5.656-2.344L131.313,184  H152v56c0,4.418,3.582,8,8,8h8c12.52,0,23.035,9.777,23.961,22.457c0.051,0.531,0.039,1.012,0.039,1.543h-32H72V208z M464,464h-32  v-64h32V464z M384,360v32c0,4.418,3.582,8,8,8h24v64H283.313L248,428.688V400h104c4.418,0,8-3.582,8-8v-8  C360,370.766,370.766,360,384,360z M344,384H240H136v-96h16v72c0,4.418,3.582,8,8,8h160c4.418,0,8-3.582,8-8V120h16V384z" data-original="#000000" class="" style="fill:#000000"/>
	</g>
</svg>
