<?xml version="1.0" encoding="UTF-8"?>
<svg width="38px" height="26px" viewBox="0 0 38 26" version="1.1" xmlns="http://www.w3.org/2000/svg" xmlns:xlink="http://www.w3.org/1999/xlink">
    <!-- Generator: Sketch 57.1 (83088) - https://sketch.com -->
    <title>Group</title>
    <desc>Created with Sketch.</desc>
    <g id="INFO-GENERALES" stroke="none" stroke-width="1" fill="none" fill-rule="evenodd">
        <g id="UI-CDM-MR-----INFO-GENERALES" transform="translate(-12.000000, -192.000000)" fill-rule="nonzero">
            <g id="Sidebar">
                <g id="Button" transform="translate(0.000000, 169.000000)">
                    <g id="Group" transform="translate(12.000000, 23.000000)">
                        <path d="M16.2853426,15.6560225 C16.3555077,15.5742751 16.4280511,15.4950824 16.5,15.4158896 C15.6009365,14.633542 14.4907834,14.1200664 13.2718151,14 C13.2480303,15.17895 11.6217482,16.1299016 9.61847778,16.1299016 C7.61461275,16.1299016 5.98892523,15.17895 5.96514048,14 C2.90047569,14.3008047 0.5,17.0680802 0.5,20.4376037 C0.5,24.008941 3.19540657,24 6.51991973,24 L12.7188197,24 C13.1255389,24 13.5221495,24 13.9068678,23.9936134 C13.8343244,23.5503895 13.7909172,23.0707624 13.7909172,22.540682 C13.7903226,19.9841614 14.6763044,17.5387661 16.2853426,15.6560225 Z" id="Path" fill="#000000"></path>
                        <path d="M4.55170077,8.32259893 C4.55460531,8.3645404 4.55809075,8.40534831 4.5621571,8.446723 C4.84622087,11.5792972 6.72429484,14 8.99970955,14 C11.2751242,14 13.1537791,11.5792972 13.4378429,8.446723 C13.4413283,8.40534831 13.4448138,8.3645404 13.4482992,8.32259893 C13.468631,8.18713932 13.4819919,8.04941261 13.4901246,7.9094188 C13.4959336,7.81420033 13.5,7.71841509 13.5,7.62149629 C13.5,7.38345012 13.4819919,7.14937139 13.4482992,6.92039365 C13.1195056,4.70089654 11.2530498,3 8.99970955,3 C6.74695024,3 4.88049442,4.70089654 4.55170077,6.92039365 C4.51742723,7.14937139 4.5,7.38345012 4.5,7.62149629 C4.5,7.71841509 4.50406635,7.81420033 4.50929452,7.9094188 C4.51800813,8.04941261 4.53136901,8.18657255 4.55170077,8.32259893 Z M6.22413348,5.83048228 C6.22413348,5.83048228 7.51897631,6.44430132 8.99912864,6.4834089 C10.4798619,6.44373454 11.7747047,5.83048228 11.7747047,5.83048228 C12.7128703,6.19208574 12.2684761,8.76695177 12.2684761,8.76751855 C12.5031627,8.60768755 12.7175176,8.52437139 12.8929517,8.48186315 C12.6344478,11.2188273 10.9904796,13.3283697 8.99912864,13.3283697 C7.00777771,13.3283697 5.36380946,11.2182605 5.10530562,8.48186315 C5.28073969,8.52437139 5.49567547,8.60768755 5.72978119,8.76751855 C5.7303621,8.76695177 5.28538695,6.19208574 6.22413348,5.83048228 Z" id="Shape" fill="#000000"></path>
                        <path d="M30.6072905,14 C30.5769621,15.4145348 28.5262964,16.5560578 25.9997084,16.5560578 C23.4731203,16.5560578 21.4224547,15.4145348 21.3927095,14 C17.5275897,14.3606378 14.5,17.6820824 14.5,21.7253986 C14.5,25.9892703 17.8658679,26 22.0296057,26 C22.050019,26 22.0704324,26 22.0914289,26 L29.9091543,26 C29.9301509,26 29.949981,26 29.9703943,26 C34.1347154,26 37.5,25.9892703 37.5,21.7253986 C37.5005832,17.6820824 34.4729935,14.3612339 30.6072905,14 Z" id="Path" fill="#00979A"></path>
                        <path d="M22.807,12.307 C22.932,12.453 23.062,12.593 23.193,12.728 L23.183,12.272 L22.807,12.307 Z" id="Path" fill="#000000"></path>
                        <path d="M28.8075,12.727 C28.9385,12.591 29.0675,12.452 29.1925,12.307 L28.8175,12.273 L28.8075,12.727 Z" id="Path" fill="#000000"></path>
                        <path d="M20.5629581,7.25835537 C20.566824,7.31546045 20.5712421,7.37136331 20.5762125,7.42726617 C20.7369214,9.40730945 21.3167989,11.1775667 22.1689427,12.5084155 C22.4920173,13.0121423 22.8537504,13.4515509 23.2464103,13.8164222 C24.0554775,14.5678048 24.9954313,15 26,15 C27.0045687,15 27.9450748,14.5672037 28.754142,13.8164222 C29.1468019,13.4515509 29.508535,13.0121423 29.8310573,12.5084155 C30.6832011,11.1781678 31.2636309,9.40730945 31.4243398,7.42726617 C31.4293102,7.37136331 31.4337283,7.31546045 31.4375941,7.25835537 C31.4618938,7.07321472 31.4784617,6.88566963 31.4884025,6.69511902 C31.4955819,6.56467901 31.5,6.434239 31.5,6.30199567 C31.5,5.97679731 31.4784617,5.65821111 31.4375941,5.34623708 C31.0349935,2.31966819 28.754142,0 26,0 C23.245858,0 20.9650065,2.31906708 20.5629581,5.34623708 C20.5215383,5.65821111 20.5,5.97739841 20.5,6.30199567 C20.5,6.43484011 20.5049704,6.56528012 20.5110453,6.69511902 C20.5215383,6.88566963 20.5381062,7.07381582 20.5629581,7.25835537 Z M22.6074405,3.86090406 C22.6074405,3.86090406 24.1902299,4.69764366 26,4.7511421 C27.8097701,4.69764366 29.3925595,3.86090406 29.3925595,3.86090406 C30.5396124,4.35381101 29.9961844,7.86487136 29.9961844,7.86547247 C30.2833618,7.64727098 30.5451351,7.53426304 30.7594136,7.47595576 C30.5898685,9.47463333 29.9354353,11.2274585 28.9894066,12.4248617 C28.9203735,12.5126232 28.8491314,12.596177 28.7767848,12.6773263 C27.9925695,13.5627555 27.0354955,14.0839144 26,14.0839144 C24.9650567,14.0839144 24.0074305,13.5627555 23.2237674,12.6779274 C23.1514208,12.596177 23.0801787,12.5126232 23.0105934,12.4248617 C22.065117,11.2274585 21.4095793,9.47463333 21.2405864,7.47595576 C21.4548649,7.53426304 21.7177427,7.64727098 22.0038156,7.86547247 C22.0038156,7.86487136 21.4603876,4.35320991 22.6074405,3.86090406 Z" id="Shape" fill="#000000"></path>
                    </g>
                </g>
            </g>
        </g>
    </g>
</svg>