<?xml version="1.0" encoding="UTF-8"?>
<svg width="33px" height="32px" viewBox="0 0 33 32" version="1.1" xmlns="http://www.w3.org/2000/svg" xmlns:xlink="http://www.w3.org/1999/xlink">
    <!-- Generator: Sketch 57.1 (83088) - https://sketch.com -->
    <title>Group 3</title>
    <desc>Created with Sketch.</desc>
    <g id="INFO-GENERALES" stroke="none" stroke-width="1" fill="none" fill-rule="evenodd">
        <g id="UI-CDM-MR-----INFO-GENERALES" transform="translate(-40.000000, -255.000000)">
            <g id="Sidebar">
                <g id="Nouveau-tiers-pm" transform="translate(0.000000, 167.000000)">
                    <g id="Group-3" transform="translate(41.000000, 89.000000)">
                        <path d="M21.3474549,18.079449 C20.8825156,17.624637 15.4940972,16.0408495 14.9748178,15.770486 C13.8898711,15.2211676 13.8026619,13.8183383 14.328303,12.9108621 C14.5581219,12.6657362 15.1309462,12.0573513 15.6502256,10.3855009 C15.8447897,10.4391977 16.0213288,10.4574547 16.1358407,10.2899206 C16.4133728,9.88397268 17.1643267,8.07170519 16.83484,7.06354749 C16.6773863,6.57947071 16.3998541,6.46429104 16.2158929,6.44549715 C16.4070111,4.86815322 16.396143,4.5988637 16.1816984,3.5131141 C15.7050959,1.0991738 13.3451447,-7.10542736e-15 11.3547062,-7.10542736e-15 C9.36426769,-7.10542736e-15 7.00458154,1.0991738 6.52797901,3.51284562 C6.31353438,4.59859521 6.30293143,4.86815322 6.49404957,6.44522867 C6.30982334,6.46402256 6.03255624,6.57920222 5.87483739,7.06327901 C5.54323018,8.08110213 6.29444907,9.88075088 6.57410183,10.2896521 C6.68861367,10.4571862 6.86488769,10.4391977 7.05971687,10.3852324 C7.5705139,12.0302344 8.13326539,12.6455999 8.36997621,12.8985119 C8.87547177,13.8857278 8.82325225,15.2195567 7.7348596,15.7702175 C7.21558021,16.040581 1.82716185,17.6241 1.36195749,18.0791805 C0.252358944,19.1651986 -0.0137750596,21.3957643 0.000538920679,22.4237898 C0.00796098453,22.9400847 2.90362618,25.4348387 11.3547062,25.4348387 C19.8060512,25.4348387 22.7014514,22.9400847 22.7091385,22.4237898 C22.7234525,21.3957643 22.4573185,19.1651986 21.3474549,18.079449 Z M7.2710259,10.2693645 L6.96977638,10.3542097 C6.68299737,9.81740089 6.19205274,8.38754238 6.41516155,7.68920145 C6.46304576,7.53963466 6.52882076,7.43956088 6.58275626,7.43385015 L6.92531248,7.398498 C7.03239418,7.38734847 7.10737769,7.28754663 7.09448579,7.17958661 C6.87427108,5.31979156 6.86137918,5.16043495 7.08001529,4.02943808 C7.49518711,1.88492226 9.58709531,0.908387097 11.3548643,0.908387097 C13.1226333,0.908387097 15.2148046,1.88492226 15.6297133,4.02916614 C15.8480863,5.15880331 15.8359837,5.31843187 15.6152428,7.17931467 C15.6023509,7.28890633 15.6794392,7.38734847 15.7846792,7.39822606 L16.1269723,7.43357821 C16.1809078,7.43928894 16.2466828,7.53936272 16.2943039,7.68865757 C16.5179389,8.38699851 16.0267312,9.81712895 15.7402153,10.3539378 L15.4389658,10.2690926 C15.3439867,10.2421706 15.2453242,10.2973743 15.2142784,10.3941848 C14.5675786,12.4285651 13.4107278,14.5341935 11.3548643,14.5341935 C9.30426279,14.5341935 8.14136074,12.4272054 7.49571331,10.3941848 C7.4649306,10.2976463 7.3662681,10.2427145 7.2710259,10.2693645 Z M10.9007786,25.4348387 C3.18425419,25.4348387 0.3451455,23.2538094 0,22.722045 C0.000533867749,21.5440393 0.316316641,19.5467982 1.20894352,18.6295615 C1.72866377,18.2236366 6.96884266,16.5735195 7.4995072,16.2834921 C8.46527396,15.7693395 8.84885794,14.7194458 8.71005232,13.6258065 C9.21802748,14.0839987 9.88776457,14.4623695 10.9007786,14.4623695 C11.896175,14.4623695 12.5608404,14.0970656 13.0653454,13.6499517 C12.949763,14.7063789 13.3522993,15.7781455 14.3071218,16.2863327 C14.8407226,16.5780645 20.0651524,18.215967 20.6091636,18.6454689 C21.4849737,19.5470822 21.8007565,21.5434711 21.8012903,22.7223291 C21.4561448,23.2540935 18.6170361,25.4348387 10.9007786,25.4348387 Z M8.18973765,2.52795787 C8.52410351,1.7781372 9.12277301,1.1907414 9.83233407,0.916768462 C9.98502137,0.859089949 10.0611234,1.11592257 9.91061047,1.17414522 C9.26048149,1.42526441 8.7120635,1.96314375 8.40572253,2.65011661 C8.33396916,2.81036493 8.11846747,2.68766205 8.18973765,2.52795787 Z" id="Shape" stroke="#000000" stroke-width="2" fill-rule="nonzero"></path>
                        <circle id="Oval" fill="#009699" cx="21.6774194" cy="20.6451613" r="10.3225806"></circle>
                        <path d="M22.974677,21.9429758 L22.974677,24.4686011 C22.974677,25.2075311 22.4126977,25.8064516 21.669846,25.8064516 C20.9269935,25.8064516 20.3851788,25.2075311 20.3851788,24.4686011 L20.3851788,21.9429758 L17.8926875,21.9429758 C17.1324807,21.9429758 16.516129,21.4368825 16.516129,20.6807396 C16.516129,19.9245202 17.1324807,19.3514956 17.8926875,19.3514956 L20.3851788,19.3514956 L20.3851788,16.8217979 C20.3851788,16.082868 20.9269935,15.483871 21.669846,15.483871 C22.4126977,15.483871 22.974677,16.082868 22.974677,16.8217979 L22.974677,19.3514956 L25.4621519,19.3514956 C26.2223588,19.3514956 26.8387097,19.9245202 26.8387097,20.6807396 C26.8387097,21.4368825 26.2223588,21.9429758 25.4621519,21.9429758 L22.974677,21.9429758 Z" id="plus-2" fill="#FFFFFF"></path>
                    </g>
                </g>
            </g>
        </g>
    </g>
</svg>