<svg width="32px" height="34px" viewBox="0 0 32 34" version="1.1" xmlns="http://www.w3.org/2000/svg" xmlns:xlink="http://www.w3.org/1999/xlink">
    <!-- Generator: Sketch 57.1 (83088) - https://sketch.com -->
    <title>Group 4</title>
    <desc>Created with Sketch.</desc>
    <g id="INFO-GENERALES" stroke="none" stroke-width="1" fill="none" fill-rule="evenodd">
        <g id="UI-CDM-MR-----INFO-GENERALES" transform="translate(-16.000000, -537.000000)" fill-rule="nonzero">
            <g id="Sidebar">
                <g id="Button" transform="translate(0.000000, 516.000000)">
                    <g id="Group-4" transform="translate(16.000000, 21.000000)">
                        <g id="Group" fill="#000000">
                            <path d="M16.5974899,27.2976426 L1.99308648,27.2976426 L1.99308648,2.87378596 L18.5177718,2.87378596 L18.5177718,5.02736271 C18.5177718,5.56875932 18.9638831,6.00735303 19.5145594,6.00735303 L21.7783421,6.00735303 L21.7783421,10.6911303 C22.3969367,10.5446121 23.0829611,10.5465337 23.7093737,10.6978557 C23.7298958,10.7026596 23.7509065,10.7079438 23.7714286,10.7127477 L23.7714286,5.02736271 C23.7714286,4.76363002 23.6634433,4.51094625 23.4714151,4.32647748 L20.2108448,1.1933908 C20.0251687,1.01468668 19.7749946,0.914285714 19.515048,0.914285714 L0.99678755,0.914285714 C0.446111291,0.914285714 -2.27373675e-13,1.35287942 -2.27373675e-13,1.89427603 L-2.27373675e-13,28.2771525 C-2.27373675e-13,28.8180688 0.446111291,29.2571429 0.99678755,29.2571429 L19.1251282,29.2571429 C18.160101,28.6768349 17.3279789,28.0307138 16.5974899,27.2976426 Z" id="Path"></path>
                            <g transform="translate(4.571429, 6.400000)">
                                <ellipse id="Oval" cx="1.5844" cy="1.83895873" rx="1.54311429" ry="1.53302857"></ellipse>
                                <path d="M14.5146,2.44985397 L4.73668571,2.44985397 C4.39717143,2.44985397 4.12177143,2.17625397 4.12177143,1.83895873 C4.12177143,1.50166349 4.39717143,1.22806349 4.73668571,1.22806349 L14.5146,1.22806349 C14.8541143,1.22806349 15.1295143,1.50166349 15.1295143,1.83895873 C15.1295143,2.17625397 14.8541143,2.44985397 14.5146,2.44985397 Z" id="Path"></path>
                                <ellipse id="Oval" cx="1.5844" cy="6.40330159" rx="1.54311429" ry="1.53302857"></ellipse>
                                <ellipse id="Oval" cx="1.5844" cy="10.968127" rx="1.54311429" ry="1.53302857"></ellipse>
                                <ellipse id="Oval" cx="1.5844" cy="15.5324698" rx="1.54311429" ry="1.53302857"></ellipse>
                                <path d="M11.5332857,5.79240635 L4.73668571,5.79240635 C4.39717143,5.79240635 4.12177143,6.06600635 4.12177143,6.40330159 C4.12177143,6.74059683 4.39717143,7.01419683 4.73668571,7.01419683 L10.1349143,7.01419683 C10.4671429,6.49015873 10.9446,6.06841905 11.5332857,5.79240635 Z" id="Path"></path>
                                <path d="M9.61228571,10.3572317 L4.73668571,10.3572317 C4.39717143,10.3572317 4.12177143,10.6308317 4.12177143,10.968127 C4.12177143,11.3054222 4.39717143,11.5790222 4.73668571,11.5790222 L9.61714286,11.5790222 C9.61568571,11.1698286 9.61422857,10.7620825 9.61228571,10.3572317 Z" id="Path"></path>
                                <path d="M9.60354286,14.9215746 L4.73668571,14.9215746 C4.39717143,14.9215746 4.12177143,15.1951746 4.12177143,15.5324698 C4.12177143,15.8697651 4.39717143,16.1433651 4.73668571,16.1433651 L9.70748571,16.1433651 C9.64385714,15.7447873 9.60937143,15.3375238 9.60354286,14.9215746 Z" id="Path"></path>
                            </g>
                        </g>
                        <g id="Group" transform="translate(17.371429, 16.457143)" fill="#00979A">
                            <path d="M11.8823319,8.57534486 C11.8618593,8.07008887 11.8669775,7.56290258 11.8720956,7.07164126 C11.8746547,6.8511045 11.876702,6.63008516 11.876702,6.41003097 L11.8772138,5.83817963 L11.8772138,5.6769996 C11.8761902,5.06364681 11.8746547,4.43002587 11.8807965,3.80267841 C11.0531919,3.61302645 10.2179101,3.41565329 9.40924272,3.2245536 C8.7490016,3.06868188 8.06624063,2.90798442 7.39473959,2.75163013 C7.34662899,2.7405309 7.28316396,2.74004833 7.24017151,2.74969983 C6.58095402,2.90219352 5.91047661,3.06047811 5.26149541,3.21393695 C4.43798537,3.40841466 3.58786095,3.6082007 2.74643738,3.80123069 L2.74899646,4.32675483 C2.75667368,5.73876919 2.76537453,7.19952362 2.74336649,8.63856218 C2.72801205,9.644731 3.05966805,10.5206046 3.75675984,11.318301 C4.60893152,12.2926199 5.74004227,13.0550883 7.3123374,13.7142857 C8.65073316,13.1636677 9.71172528,12.4909582 10.5546843,11.6585163 C11.4948881,10.7300421 11.9289071,9.72146042 11.8823319,8.57534486 Z M10.2967296,6.52922699 C9.8918841,7.01904059 9.48550313,7.50788903 9.08219305,7.9981852 C8.42502282,8.79684677 7.77092348,9.59792122 7.11221781,10.3956176 C6.74166388,10.8444124 6.44327583,10.8395866 6.09114724,10.385001 C5.50819016,9.6331492 4.92574489,8.88129739 4.34381144,8.12896302 C4.14727455,7.87464601 4.14932181,7.61212522 4.34637051,7.43984596 C4.5429074,7.26804927 4.82491737,7.28493939 5.07519482,7.48906861 C5.50256019,7.83845288 5.9273665,8.19073261 6.35422006,8.54059946 C6.42280324,8.59706074 6.49650458,8.64773111 6.63725365,8.75244988 C6.69252965,8.66848183 6.7288685,8.58113576 6.79335717,8.51984874 C7.692104,7.66665619 8.59289808,6.81539395 9.49932213,5.96944003 C9.59707876,5.87823336 9.72400884,5.79136986 9.85298617,5.75855476 C10.0669248,5.70450637 10.2562963,5.78364866 10.3668483,5.9737832 C10.480983,6.17067379 10.4385023,6.3574303 10.2967296,6.52922699 Z" id="Shape"></path>
                            <path d="M14.623202,9.00498106 L14.623202,9.00498106 C14.6109283,8.69134326 14.6079826,8.37036603 14.6079826,8.0498781 L14.6197654,8.0498781 L14.6192744,5.65478128 C14.6178016,4.87093141 14.6163287,4.06065964 14.6246749,3.26947035 C14.6354758,2.30311362 14.0831573,1.59119005 13.1469162,1.36464667 C12.2347317,1.14446412 11.3053639,0.912538506 10.405944,0.688441602 L10.00582,0.588625514 C9.32585461,0.418840305 8.62281462,0.243183561 7.93057553,0.0738876472 C7.53290626,-0.0239712628 7.09792481,-0.0244605573 6.70712884,0.0714411744 C5.94615679,0.257373103 5.18862138,0.4462408 4.48410854,0.622386838 C3.61119995,0.840122912 2.52521919,1.11119209 1.49078814,1.35975372 C0.554547042,1.58482922 -0.00169898229,2.30409221 0.00271956513,3.28365989 L0.00713811254,4.136011 C0.0159752074,5.77612633 0.0248123022,7.47202124 0.000755766277,9.13219765 C-0.0233007696,10.8383677 0.527053858,12.3840492 1.63610926,13.7266735 C2.83304466,15.1740067 4.38542765,16.2817696 6.52253175,17.214365 C6.75867856,17.3171169 7.0287009,17.3714286 7.30265084,17.3714286 C7.58445598,17.3714286 7.86626111,17.3146704 8.11860927,17.2065363 C9.92235851,16.4324723 11.3657507,15.4646477 12.5317562,14.2477722 C13.9942954,12.7206839 14.6978264,10.9562877 14.623202,9.00498106 Z M11.2960358,13.1595811 L11.2960358,13.1595811 C10.2586591,14.2433685 8.95420568,15.1236094 7.31246984,15.8462975 C5.38107367,14.9807354 3.98726743,13.9820852 2.937126,12.7128552 C2.0809097,11.6775079 1.67391239,10.5398981 1.69256848,9.2349495 C1.72006166,7.29440732 1.70975172,5.32499676 1.69944177,3.42115166 L1.69649607,2.8790133 C2.71423483,2.63240885 3.73933783,2.3765078 4.7344929,2.12843546 C5.56419791,1.92146387 6.42237801,1.70715285 7.26730247,1.50067055 C7.28694045,1.49577761 7.33554448,1.49430973 7.3704019,1.50311703 C8.20747117,1.70862074 9.05926892,1.92097457 9.88259159,2.12647828 C10.8787286,2.37503991 11.9053044,2.63143026 12.9279527,2.88048118 C12.9220613,3.66775612 12.9235341,4.46041329 12.925007,5.23056291 C12.925007,5.24524174 12.925007,5.25992058 12.925007,5.27411012 L12.924516,6.23508462 C12.924516,6.53159712 12.9215703,6.82810961 12.9186246,7.12462211 C12.9122423,7.78614834 12.905369,8.47018212 12.9313893,9.15372661 C12.9888304,10.6402034 12.4541862,11.9505343 11.2960358,13.1595811 Z" id="Shape"></path>
                        </g>
                    </g>
                </g>
            </g>
        </g>
    </g>
</svg>