<?xml version="1.0" encoding="UTF-8"?>
<svg width="32px" height="32px" viewBox="0 0 32 32" version="1.1" xmlns="http://www.w3.org/2000/svg" xmlns:xlink="http://www.w3.org/1999/xlink">
    <!-- Generator: Sketch 57.1 (83088) - https://sketch.com -->
    <title>help</title>
    <desc>Created with Sketch.</desc>
    <g id="INFO-GENERALES" stroke="none" stroke-width="1" fill="none" fill-rule="evenodd">
        <g id="UI-CDM-MR-----INFO-GENERALES" transform="translate(-13.000000, -742.000000)" fill-rule="nonzero">
            <g id="Sidebar">
                <g id="Button" transform="translate(0.000000, 723.000000)">
                    <g id="help" transform="translate(13.000000, 19.000000)">
                        <polygon id="Path" fill="#000000" points="17.2972973 24.2162162 13.8378378 24.2162162 13.8378378 20.7567568 17.2972973 20.7567568"></polygon>
                        <path d="M16,3.2 C23.04,3.2 28.8,8.96 28.8,16 C28.8,23.04 23.04,28.8 16,28.8 C8.96,28.8 3.2,23.04 3.2,16 C3.2,8.96 8.96,3.2 16,3.2 L16,3.2 Z M16,0 C7.2,0 0,7.2 0,16 C0,24.8 7.2,32 16,32 C24.8,32 32,24.8 32,16 C32,7.2 24.8,0 16,0 L16,0 Z" id="Shape" fill="#00979A"></path>
                        <path d="M14.4681631,19.027027 C14.4681631,16.7783784 15.435639,15.9752896 16.241869,15.1722008 C16.725607,14.8509653 17.0480989,14.369112 17.2093449,13.8872587 C17.5318369,13.4054054 17.5318369,12.9235521 17.5318369,12.2810811 C17.5318369,11.63861 17.3705909,11.1567568 17.0480989,10.6749035 C16.725607,10.353668 16.403115,10.0324324 15.758131,10.0324324 C15.274393,10.0324324 14.1456711,10.1930502 14.1456711,12.4416988 L11.2432432,12.4416988 L11.2432432,11.7992278 C11.2432432,10.353668 11.7269812,9.38996139 12.5332112,8.58687259 C13.5006871,8.10501931 14.6294091,7.78378378 15.919377,7.78378378 C17.5318369,7.78378378 18.6605589,8.10501931 19.4667888,9.06872587 C20.2730188,10.0324324 20.7567568,10.996139 20.7567568,12.2810811 C20.7567568,16.1359073 17.5318369,16.2965251 17.5318369,19.027027 L14.4681631,19.027027 Z" id="Path" fill="#000000"></path>
                    </g>
                </g>
            </g>
        </g>
    </g>
</svg>